#define bullet_width 24
#define bullet_height 24
static unsigned char bullet_bits[] = {
   0x00, 0x00, 0x00, 0x00, 0x00, 0x00, 0xe0, 0x03, 0x00, 0xf0, 0x07, 0x00,
   0xf8, 0x0f, 0x00, 0xfc, 0x1f, 0x00, 0xfc, 0x3f, 0x00, 0xfc, 0x7f, 0x00,
   0xfc, 0xff, 0x00, 0xf8, 0xff, 0x01, 0xf0, 0xff, 0x07, 0xe0, 0xff, 0x1f,
   0xe0, 0xff, 0x1f, 0xf0, 0xff, 0x07, 0xf8, 0xff, 0x01, 0xfc, 0xff, 0x00,
   0xfc, 0x7f, 0x00, 0xfc, 0x3f, 0x00, 0xfc, 0x1f, 0x00, 0xf8, 0x0f, 0x00,
   0xf0, 0x07, 0x00, 0xe0, 0x03, 0x00, 0x00, 0x00, 0x00, 0x00, 0x00, 0x00 };
