#define close_width 24
#define close_height 24
static unsigned char close_bits[] = {
   0x00, 0x00, 0x00, 0x00, 0x00, 0x00, 0x04, 0x00, 0x20, 0x18, 0x00, 0x18,
   0x78, 0x00, 0x1e, 0xf0, 0xc3, 0x0f, 0xf0, 0xc3, 0x0f, 0xe0, 0xe7, 0x07,
   0xe0, 0xe7, 0x07, 0xe0, 0xe7, 0x07, 0x80, 0xff, 0x01, 0x00, 0x3c, 0x00,
   0x00, 0x3c, 0x00, 0x80, 0xff, 0x01, 0xe0, 0xe7, 0x07, 0xe0, 0xe7, 0x07,
   0xe0, 0xe7, 0x07, 0xf0, 0xc3, 0x0f, 0xf0, 0xc3, 0x0f, 0x78, 0x00, 0x1e,
   0x18, 0x00, 0x18, 0x04, 0x00, 0x20, 0x00, 0x00, 0x00, 0x00, 0x00, 0x00 };
