#define iconify_width 24
#define iconify_height 24
static unsigned char iconify_bits[] = {
   0x00, 0x00, 0x00, 0x00, 0x00, 0x00, 0x00, 0x00, 0x20, 0x00, 0x00, 0x18,
   0x00, 0x00, 0x1f, 0x00, 0xc0, 0x0f, 0x00, 0xe0, 0x0f, 0x00, 0xe0, 0x0f,
   0x00, 0xe0, 0x07, 0x00, 0xe0, 0x07, 0x00, 0xe0, 0x03, 0x00, 0x18, 0x00,
   0x00, 0x18, 0x00, 0xc0, 0x07, 0x00, 0xe0, 0x07, 0x00, 0xe0, 0x07, 0x00,
   0xf0, 0x07, 0x00, 0xf0, 0x07, 0x00, 0xf0, 0x03, 0x00, 0xf8, 0x00, 0x00,
   0x18, 0x00, 0x00, 0x04, 0x00, 0x00, 0x00, 0x00, 0x00, 0x00, 0x00, 0x00 };
