#define max_width 24
#define max_height 24
static unsigned char max_bits[] = {
   0x00, 0x00, 0x00, 0x00, 0x00, 0x00, 0xe0, 0x81, 0x07, 0xf0, 0xc3, 0x0f,
   0xf8, 0xe7, 0x1f, 0x3c, 0x7e, 0x3c, 0x1c, 0x3c, 0x38, 0x0c, 0x18, 0x30,
   0x0c, 0x18, 0x30, 0x0c, 0x00, 0x30, 0x1c, 0x00, 0x38, 0x1c, 0x00, 0x38,
   0x38, 0x00, 0x1c, 0x38, 0x00, 0x1c, 0x70, 0x00, 0x0e, 0xe0, 0x00, 0x07,
   0xc0, 0x81, 0x03, 0x80, 0xc3, 0x01, 0x00, 0xe7, 0x00, 0x00, 0x7e, 0x00,
   0x00, 0x3c, 0x00, 0x00, 0x18, 0x00, 0x00, 0x00, 0x00, 0x00, 0x00, 0x00 };
